<mxfile host="65bd71144e">
    <diagram id="BHE6gt0w3P7VTIAxyqEJ" name="Page-1">
        <mxGraphModel dx="505" dy="265" grid="1" gridSize="10" guides="1" tooltips="1" connect="1" arrows="1" fold="1" page="1" pageScale="1" pageWidth="827" pageHeight="1169" math="0" shadow="0">
            <root>
                <mxCell id="0"/>
                <mxCell id="1" parent="0"/>
                <mxCell id="12" style="edgeStyle=orthogonalEdgeStyle;rounded=1;orthogonalLoop=1;jettySize=auto;html=1;entryX=0.5;entryY=0;entryDx=0;entryDy=0;labelBackgroundColor=#000000;sketch=1;shadow=1;strokeColor=#994C00;" parent="1" edge="1">
                    <mxGeometry relative="1" as="geometry">
                        <mxPoint x="270" y="99" as="sourcePoint"/>
                        <mxPoint x="275" y="119" as="targetPoint"/>
                    </mxGeometry>
                </mxCell>
                <mxCell id="2" value="&lt;font face=&quot;Comic Sans MS&quot;&gt;Crawler Yoga &lt;br&gt;Mess Data&lt;/font&gt;" style="shape=document;whiteSpace=wrap;html=1;boundedLbl=1;fillColor=#fad7ac;strokeColor=#b46504;fontColor=#000000;" parent="1" vertex="1">
                    <mxGeometry x="217" y="20" width="120" height="80" as="geometry"/>
                </mxCell>
                <mxCell id="20" style="edgeStyle=orthogonalEdgeStyle;rounded=1;orthogonalLoop=1;jettySize=auto;html=1;entryX=0.5;entryY=0;entryDx=0;entryDy=0;sketch=1;shadow=1;strokeColor=#994C00;" parent="1" source="3" target="6" edge="1">
                    <mxGeometry relative="1" as="geometry"/>
                </mxCell>
                <mxCell id="3" value="Data Visualization&lt;br&gt;(Dimension Reduction, &lt;br&gt;ex: PCA, t-SNE)" style="rounded=1;whiteSpace=wrap;html=1;fillColor=#b0e3e6;strokeColor=#0e8088;fontColor=#000000;fontFamily=Comic Sans MS;" parent="1" vertex="1">
                    <mxGeometry x="80" y="320" width="150" height="60" as="geometry"/>
                </mxCell>
                <mxCell id="4" value="&lt;font face=&quot;Comic Sans MS&quot;&gt;Extract patches embeddings (ex: 1280d)&lt;br&gt;(Model: ImageNet pretrained model)&lt;br&gt;&lt;br&gt;TODO: use Pose-estimation model to extract&lt;/font&gt;" style="rounded=1;whiteSpace=wrap;html=1;fillColor=#fad7ac;strokeColor=#b46504;fontColor=#000000;" parent="1" vertex="1">
                    <mxGeometry x="140" y="210" width="270" height="60" as="geometry"/>
                </mxCell>
                <mxCell id="15" style="edgeStyle=orthogonalEdgeStyle;rounded=1;orthogonalLoop=1;jettySize=auto;html=1;entryX=0.5;entryY=0;entryDx=0;entryDy=0;sketch=1;shadow=1;labelBorderColor=#FFE6CC;strokeColor=#994C00;" parent="1" source="5" target="4" edge="1">
                    <mxGeometry relative="1" as="geometry"/>
                </mxCell>
                <mxCell id="5" value="&lt;font face=&quot;Comic Sans MS&quot;&gt;Crop People Patches&lt;br&gt;(Object Detection)&lt;br&gt;&lt;br&gt;TODO: use Mask-RCNN to remove background&lt;/font&gt;" style="rounded=1;whiteSpace=wrap;html=1;fillColor=#fad7ac;strokeColor=#b46504;fontColor=#000000;" parent="1" vertex="1">
                    <mxGeometry x="140" y="120" width="270" height="60" as="geometry"/>
                </mxCell>
                <mxCell id="6" value="Verify Feature Extractor" style="rounded=1;whiteSpace=wrap;html=1;fillColor=#b0e3e6;strokeColor=#0e8088;fontColor=#000000;fontFamily=Comic Sans MS;" parent="1" vertex="1">
                    <mxGeometry x="80" y="410" width="150" height="60" as="geometry"/>
                </mxCell>
                <mxCell id="21" style="edgeStyle=orthogonalEdgeStyle;rounded=1;orthogonalLoop=1;jettySize=auto;html=1;entryX=0.5;entryY=0;entryDx=0;entryDy=0;sketch=1;shadow=1;strokeColor=#994C00;" parent="1" source="7" target="9" edge="1">
                    <mxGeometry relative="1" as="geometry"/>
                </mxCell>
                <mxCell id="7" value="Reduce Dimention &lt;br&gt;(ex: 128d)&lt;br&gt;(Optional)" style="rounded=1;whiteSpace=wrap;html=1;fillColor=#fad9d5;strokeColor=#ae4132;fontColor=#000000;fontFamily=Comic Sans MS;" parent="1" vertex="1">
                    <mxGeometry x="310" y="320" width="150" height="60" as="geometry"/>
                </mxCell>
                <mxCell id="22" style="edgeStyle=orthogonalEdgeStyle;rounded=1;orthogonalLoop=1;jettySize=auto;html=1;entryX=0.5;entryY=0;entryDx=0;entryDy=0;sketch=1;shadow=1;strokeColor=#994C00;" parent="1" source="9" target="10" edge="1">
                    <mxGeometry relative="1" as="geometry"/>
                </mxCell>
                <mxCell id="9" value="Select number of cluter&lt;br&gt;(k-means elbow method)" style="rounded=1;whiteSpace=wrap;html=1;fillColor=#fad9d5;strokeColor=#ae4132;fontColor=#000000;fontFamily=Comic Sans MS;" parent="1" vertex="1">
                    <mxGeometry x="310" y="410" width="150" height="60" as="geometry"/>
                </mxCell>
                <mxCell id="24" style="edgeStyle=orthogonalEdgeStyle;rounded=1;orthogonalLoop=1;jettySize=auto;html=1;entryX=0.5;entryY=0;entryDx=0;entryDy=0;sketch=1;shadow=1;strokeColor=#994C00;" parent="1" source="10" target="11" edge="1">
                    <mxGeometry relative="1" as="geometry"/>
                </mxCell>
                <mxCell id="10" value="Clustering" style="rounded=1;whiteSpace=wrap;html=1;fillColor=#fad9d5;strokeColor=#ae4132;fontColor=#000000;fontFamily=Comic Sans MS;" parent="1" vertex="1">
                    <mxGeometry x="310" y="500" width="150" height="60" as="geometry"/>
                </mxCell>
                <mxCell id="11" value="Collect/Filter usual data" style="rounded=1;whiteSpace=wrap;html=1;fillColor=#fad9d5;strokeColor=#ae4132;fontColor=#000000;fontFamily=Comic Sans MS;" parent="1" vertex="1">
                    <mxGeometry x="310" y="590" width="150" height="60" as="geometry"/>
                </mxCell>
                <mxCell id="18" value="" style="edgeStyle=elbowEdgeStyle;elbow=horizontal;endArrow=classic;html=1;entryX=0.5;entryY=0;entryDx=0;entryDy=0;exitX=0.5;exitY=1;exitDx=0;exitDy=0;sketch=1;shadow=1;curved=1;strokeColor=#994C00;" parent="1" source="4" target="3" edge="1">
                    <mxGeometry width="50" height="50" relative="1" as="geometry">
                        <mxPoint x="220" y="320" as="sourcePoint"/>
                        <mxPoint x="270" y="270" as="targetPoint"/>
                        <Array as="points">
                            <mxPoint x="155" y="310"/>
                        </Array>
                    </mxGeometry>
                </mxCell>
                <mxCell id="19" value="" style="edgeStyle=elbowEdgeStyle;elbow=horizontal;endArrow=classic;html=1;exitX=0.5;exitY=1;exitDx=0;exitDy=0;sketch=1;shadow=1;curved=1;strokeColor=#994C00;" parent="1" source="4" target="7" edge="1">
                    <mxGeometry width="50" height="50" relative="1" as="geometry">
                        <mxPoint x="392" y="170" as="sourcePoint"/>
                        <mxPoint x="460" y="280" as="targetPoint"/>
                        <Array as="points">
                            <mxPoint x="392" y="250"/>
                        </Array>
                    </mxGeometry>
                </mxCell>
            </root>
        </mxGraphModel>
    </diagram>
</mxfile>